<?xml version="1.0" encoding="UTF-8"?>
<svg id="_レイヤー_1" data-name="レイヤー_1" xmlns="http://www.w3.org/2000/svg" viewBox="0 0 57.57 75.12">
  <g>
    <g>
      <path d="M28.74,47.13c-.54,0-1.05-.24-1.41-.67L.43,14.75c-.61-.72-.42-1.36-.31-1.61s.48-.8,1.42-.8h54.39c.95,0,1.31.56,1.42.8.11.24.31.88-.31,1.61l-26.9,31.72c-.36.42-.87.67-1.41.67ZM11.09,23.12l17.95,20.06,17.94-20.06H11.09ZM2.7,14.34l6.06,7.15c.22-.19.57-.36,1.09-.36h38.37c.28,0,.51.05.7.12l5.86-6.91H2.7Z"/>
      <g>
        <polygon points="8.85 22.12 29.04 44.68 49.22 22.12 8.85 22.12"/>
        <path d="M29.04,46.18L6.62,21.12h44.84l-22.42,25.06ZM11.09,23.12l17.95,20.06,17.95-20.06H11.09Z"/>
      </g>
    </g>
    <g>
      <rect x="27.27" y="13.47" width="35.82" height="1.77" transform="translate(5.01 39.52) rotate(-49.69)"/>
      <path d="M34.27,28.71s-.06-.01-.08-.03l-1.35-1.15c-.05-.04-.06-.12-.01-.18L56,.04c.04-.05.12-.06.18-.01l1.35,1.15s.04.05.04.08c0,.03,0,.07-.03.09l-23.17,27.32s-.05.04-.09.04c0,0,0,0,0,0ZM33.1,27.43l1.16.98L57.27,1.28l-1.16-.98-23.01,27.13Z"/>
    </g>
  </g>
  <rect x="26.41" y="30.76" width="4.75" height="42.74"/>
  <path d="M35.69,72.18c-3.8-.62-10.02-.62-13.81,0l-11.05,1.81c-3.8.62-3.76,1.13.09,1.13h35.73c3.85,0,3.89-.51.09-1.13l-11.05-1.81Z"/>
</svg>