<?xml version="1.0" encoding="UTF-8"?>
<svg id="_レイヤー_1" data-name="レイヤー_1" xmlns="http://www.w3.org/2000/svg" viewBox="0 0 89.15 69.74">
  <defs>
    <style>
      .cls-1 {
        fill-rule: evenodd;
      }
    </style>
  </defs>
  <path class="cls-1" d="M36.92,62.08c0,4.23,3.43,7.66,7.66,7.66s7.66-3.43,7.66-7.66-3.43-7.66-7.66-7.66-7.66,3.43-7.66,7.66ZM72.24,39.33c2.52,0,4.57-2.05,4.57-4.57,0-1.43-.65-2.7-1.68-3.54-7.76-7.95-18.58-12.89-30.55-12.92-11.97.03-22.8,4.97-30.55,12.92-1.02.84-1.68,2.11-1.68,3.54,0,2.53,2.05,4.57,4.57,4.57,2.24,0,3.04-.91,3.04-.91,6.1-6.69,14.87-10.91,24.62-10.98,9.75.07,18.52,4.29,24.62,10.98,0,0,.8.91,3.04.91ZM44.58,9.15c14.41.06,27.43,6,36.8,15.54,0,0,1.17,1.17,3.21,1.15,2.53,0,4.57-2.05,4.57-4.57,0-1.41-.64-2.67-1.64-3.51h.01C76.5,6.8,61.33.03,44.58,0,27.82.03,12.65,6.8,1.62,17.74h.01c-1,.85-1.64,2.11-1.64,3.52,0,2.53,2.05,4.57,4.57,4.57,2.04.02,3.21-1.15,3.21-1.15,9.37-9.54,22.39-15.48,36.8-15.54ZM63.16,45.22c-4.48-5.26-11.14-8.6-18.59-8.63-7.44.03-14.1,3.38-18.59,8.63h0c-.94.82-1.53,2.03-1.53,3.37,0,2.46,2,4.46,4.46,4.46,2.23,0,3.08-1.05,3.08-1.05,2.82-3.9,7.4-6.45,12.58-6.49,5.18.04,9.76,2.59,12.58,6.49,0,0,.85,1.05,3.08,1.05,2.46,0,4.46-2,4.46-4.46,0-1.34-.59-2.55-1.53-3.37h0Z"/>
</svg>